ply
format ascii 1.0
comment Created by Blender 2.78 (sub 0) - www.blender.org, source file: ''
element vertex 23
property float x
property float y
property float z
property float nx
property float ny
property float nz
property float u
property float v
element face 12
property list uchar uint vertex_indices
end_header
1.000000 1.000000 -1.000000 0.577349 0.577349 -0.577349 0.333333 0.333334
1.000000 -1.000000 -1.000000 0.577349 -0.577349 -0.577349 0.000000 0.333333
-1.000000 -1.000000 -1.000000 -0.577349 -0.577349 -0.577349 0.000000 0.666667
0.999999 -1.000001 1.000000 0.577349 -0.577349 0.577349 0.666667 0.000000
1.000000 0.999999 1.000000 0.577349 0.577349 0.577349 0.333333 0.000000
-1.000000 1.000000 1.000000 -0.577349 0.577349 0.577349 0.333333 0.333333
1.000000 -1.000000 -1.000000 0.577349 -0.577349 -0.577349 0.333333 0.000000
1.000000 1.000000 -1.000000 0.577349 0.577349 -0.577349 0.000000 0.000000
1.000000 0.999999 1.000000 0.577349 0.577349 0.577349 0.000000 0.333333
-1.000000 -1.000000 -1.000000 -0.577349 -0.577349 -0.577349 1.000000 0.000000
1.000000 -1.000000 -1.000000 0.577349 -0.577349 -0.577349 0.666667 0.000000
0.999999 -1.000001 1.000000 0.577349 -0.577349 0.577349 0.666667 0.333333
-1.000000 -1.000000 -1.000000 -0.577349 -0.577349 -0.577349 0.000000 1.000000
-1.000000 -1.000000 1.000000 -0.577349 -0.577349 0.577349 0.333333 1.000000
-1.000000 1.000000 1.000000 -0.577349 0.577349 0.577349 0.333333 0.666667
1.000000 0.999999 1.000000 0.577349 0.577349 0.577349 0.333333 0.666667
1.000000 1.000000 -1.000000 0.577349 0.577349 -0.577349 0.666667 0.666667
-1.000000 1.000000 -1.000000 -0.577349 0.577349 -0.577349 0.333333 0.666667
-1.000000 -1.000000 1.000000 -0.577349 -0.577349 0.577349 0.666667 0.333333
0.999999 -1.000001 1.000000 0.577349 -0.577349 0.577349 0.333333 0.333333
-1.000000 -1.000000 1.000000 -0.577349 -0.577349 0.577349 1.000000 0.333333
-1.000000 1.000000 -1.000000 -0.577349 0.577349 -0.577349 0.000000 0.666667
-1.000000 1.000000 -1.000000 -0.577349 0.577349 -0.577349 0.666667 0.333333
3 0 1 2
3 3 4 5
3 6 7 8
3 9 10 11
3 12 13 14
3 5 15 16
3 0 2 17
3 3 5 18
3 6 8 19
3 9 11 20
3 12 14 21
3 5 16 22
